<svg xmlns="http://www.w3.org/2000/svg" viewBox="0 0 400 400"><defs><linearGradient id="g" x2=".7" y2="1"><stop stop-color="#e79829"/><stop offset="1" stop-color="#ffe697"/></linearGradient></defs><rect width="400" height="400" fill="url(#g)"/><path d="M200 150L0 0V65Z M200 150L400 0V65Z M200 150L400 390V330Z M200 150L0 390V330Z" fill="#62bc50" opacity=".17"/><circle cx="221" cy="117" r="3" fill="white" opacity=".3"/><circle cx="292" cy="214" r="4" fill="white" opacity=".3"/><circle cx="363" cy="311" r="5" fill="white" opacity=".3"/><circle cx="34" cy="48" r="6" fill="white" opacity=".3"/><circle cx="105" cy="145" r="3" fill="white" opacity=".3"/><circle cx="176" cy="242" r="4" fill="white" opacity=".3"/><circle cx="247" cy="339" r="5" fill="white" opacity=".3"/><circle cx="318" cy="76" r="6" fill="white" opacity=".3"/><circle cx="389" cy="173" r="3" fill="white" opacity=".3"/><circle cx="60" cy="270" r="4" fill="white" opacity=".3"/><circle cx="131" cy="7" r="5" fill="white" opacity=".3"/><circle cx="202" cy="104" r="6" fill="white" opacity=".3"/><circle cx="273" cy="201" r="3" fill="white" opacity=".3"/><circle cx="344" cy="298" r="4" fill="white" opacity=".3"/><circle cx="15" cy="35" r="5" fill="white" opacity=".3"/><circle cx="86" cy="132" r="6" fill="white" opacity=".3"/><circle cx="157" cy="229" r="3" fill="white" opacity=".3"/><circle cx="228" cy="326" r="4" fill="white" opacity=".3"/><rect x="35" y="64" width="60" height="33" rx="7" fill="#ff687c" stroke="white" stroke-opacity=".3" stroke-width="3"/><rect x="103" y="64" width="60" height="33" rx="7" fill="#ff687c" stroke="white" stroke-opacity=".3" stroke-width="3"/><rect x="171" y="64" width="60" height="33" rx="7" fill="#ff687c" stroke="white" stroke-opacity=".3" stroke-width="3"/><rect x="239" y="64" width="60" height="33" rx="7" fill="#ff687c" stroke="white" stroke-opacity=".3" stroke-width="3"/><rect x="307" y="64" width="60" height="33" rx="7" fill="#ff687c" stroke="white" stroke-opacity=".3" stroke-width="3"/><rect x="35" y="106" width="60" height="33" rx="7" fill="#ffe269" stroke="white" stroke-opacity=".3" stroke-width="3"/><rect x="103" y="106" width="60" height="33" rx="7" fill="#ffe269" stroke="white" stroke-opacity=".3" stroke-width="3"/><rect x="171" y="106" width="60" height="33" rx="7" fill="#ffe269" stroke="white" stroke-opacity=".3" stroke-width="3"/><rect x="239" y="106" width="60" height="33" rx="7" fill="#ffe269" stroke="white" stroke-opacity=".3" stroke-width="3"/><rect x="307" y="106" width="60" height="33" rx="7" fill="#ffe269" stroke="white" stroke-opacity=".3" stroke-width="3"/><rect x="35" y="148" width="60" height="33" rx="7" fill="#58e4ca" stroke="white" stroke-opacity=".3" stroke-width="3"/><rect x="103" y="148" width="60" height="33" rx="7" fill="#58e4ca" stroke="white" stroke-opacity=".3" stroke-width="3"/><rect x="171" y="148" width="60" height="33" rx="7" fill="#58e4ca" stroke="white" stroke-opacity=".3" stroke-width="3"/><rect x="239" y="148" width="60" height="33" rx="7" fill="#58e4ca" stroke="white" stroke-opacity=".3" stroke-width="3"/><rect x="307" y="148" width="60" height="33" rx="7" fill="#58e4ca" stroke="white" stroke-opacity=".3" stroke-width="3"/><rect x="35" y="190" width="60" height="33" rx="7" fill="#b28cff" stroke="white" stroke-opacity=".3" stroke-width="3"/><rect x="103" y="190" width="60" height="33" rx="7" fill="#b28cff" stroke="white" stroke-opacity=".3" stroke-width="3"/><rect x="171" y="190" width="60" height="33" rx="7" fill="#b28cff" stroke="white" stroke-opacity=".3" stroke-width="3"/><rect x="239" y="190" width="60" height="33" rx="7" fill="#b28cff" stroke="white" stroke-opacity=".3" stroke-width="3"/><rect x="307" y="190" width="60" height="33" rx="7" fill="#b28cff" stroke="white" stroke-opacity=".3" stroke-width="3"/><path d="M90 295l160 -55 -65 -72" stroke="white" stroke-width="5" stroke-dasharray="12 8" opacity=".6"/><circle cx="249" cy="240" r="20" fill="white"/><rect x="95" y="307" width="176" height="25" rx="12" fill="#4be5f0" stroke="white" stroke-width="5"/><text x="200" y="347" text-anchor="middle" font-family="Arial,sans-serif" font-size="34" font-weight="900" fill="white" stroke="#24364a" stroke-width="6" paint-order="stroke">CRYSTAL</text><text x="200" y="380" text-anchor="middle" font-family="Arial,sans-serif" font-size="34" font-weight="900" fill="white" stroke="#24364a" stroke-width="6" paint-order="stroke">COURT</text></svg>