<svg xmlns="http://www.w3.org/2000/svg" viewBox="0 0 400 400"><defs><linearGradient id="g" x2=".7" y2="1"><stop stop-color="#cf4b87"/><stop offset="1" stop-color="#ffb6cf"/></linearGradient></defs><rect width="400" height="400" fill="url(#g)"/><path d="M200 150L0 0V65Z M200 150L400 0V65Z M200 150L400 390V330Z M200 150L0 390V330Z" fill="#78ead6" opacity=".17"/><circle cx="276" cy="12" r="3" fill="white" opacity=".3"/><circle cx="347" cy="109" r="4" fill="white" opacity=".3"/><circle cx="18" cy="206" r="5" fill="white" opacity=".3"/><circle cx="89" cy="303" r="6" fill="white" opacity=".3"/><circle cx="160" cy="40" r="3" fill="white" opacity=".3"/><circle cx="231" cy="137" r="4" fill="white" opacity=".3"/><circle cx="302" cy="234" r="5" fill="white" opacity=".3"/><circle cx="373" cy="331" r="6" fill="white" opacity=".3"/><circle cx="44" cy="68" r="3" fill="white" opacity=".3"/><circle cx="115" cy="165" r="4" fill="white" opacity=".3"/><circle cx="186" cy="262" r="5" fill="white" opacity=".3"/><circle cx="257" cy="359" r="6" fill="white" opacity=".3"/><circle cx="328" cy="96" r="3" fill="white" opacity=".3"/><circle cx="399" cy="193" r="4" fill="white" opacity=".3"/><circle cx="70" cy="290" r="5" fill="white" opacity=".3"/><circle cx="141" cy="27" r="6" fill="white" opacity=".3"/><circle cx="212" cy="124" r="3" fill="white" opacity=".3"/><circle cx="283" cy="221" r="4" fill="white" opacity=".3"/><path d="M0 280h90v-45h90v-55h85v55h70v-70h65v235H0Z" fill="#487435"/><path d="M0 280h90v-45h90v-55h85v55h70v-70h65" fill="none" stroke="#baf052" stroke-width="17"/><g transform="rotate(-10 200 125)"><rect x="170" y="78" width="78" height="85" rx="20" fill="#ffce4a" stroke="#473442" stroke-width="6"/><circle cx="193" cy="102" r="6" fill="#392e35"/><circle cx="227" cy="102" r="6" fill="#392e35"/><path d="M196 125q14 16 29 0" fill="none" stroke="#392e35" stroke-width="5"/><path d="M184 163l-17 23M232 163l18 17" stroke="#392e35" stroke-width="12"/></g><circle cx="298" cy="119" r="17" fill="#ffdf65" stroke="white" stroke-width="4"/><text x="200" y="347" text-anchor="middle" font-family="Arial,sans-serif" font-size="34" font-weight="900" fill="white" stroke="#24364a" stroke-width="6" paint-order="stroke">FOREST</text><text x="200" y="380" text-anchor="middle" font-family="Arial,sans-serif" font-size="34" font-weight="900" fill="white" stroke="#24364a" stroke-width="6" paint-order="stroke">LEAP</text></svg>