<svg xmlns="http://www.w3.org/2000/svg" viewBox="0 0 400 400"><defs><linearGradient id="g" x2=".7" y2="1"><stop stop-color="#5227ab"/><stop offset="1" stop-color="#e560cc"/></linearGradient></defs><rect width="400" height="400" fill="url(#g)"/><path d="M200 150L0 0V65Z M200 150L400 0V65Z M200 150L400 390V330Z M200 150L0 390V330Z" fill="#58dfff" opacity=".17"/><circle cx="106" cy="322" r="3" fill="white" opacity=".3"/><circle cx="177" cy="59" r="4" fill="white" opacity=".3"/><circle cx="248" cy="156" r="5" fill="white" opacity=".3"/><circle cx="319" cy="253" r="6" fill="white" opacity=".3"/><circle cx="390" cy="350" r="3" fill="white" opacity=".3"/><circle cx="61" cy="87" r="4" fill="white" opacity=".3"/><circle cx="132" cy="184" r="5" fill="white" opacity=".3"/><circle cx="203" cy="281" r="6" fill="white" opacity=".3"/><circle cx="274" cy="18" r="3" fill="white" opacity=".3"/><circle cx="345" cy="115" r="4" fill="white" opacity=".3"/><circle cx="16" cy="212" r="5" fill="white" opacity=".3"/><circle cx="87" cy="309" r="6" fill="white" opacity=".3"/><circle cx="158" cy="46" r="3" fill="white" opacity=".3"/><circle cx="229" cy="143" r="4" fill="white" opacity=".3"/><circle cx="300" cy="240" r="5" fill="white" opacity=".3"/><circle cx="371" cy="337" r="6" fill="white" opacity=".3"/><circle cx="42" cy="74" r="3" fill="white" opacity=".3"/><circle cx="113" cy="171" r="4" fill="white" opacity=".3"/><circle cx="200" cy="187" r="104" fill="#f4b83b" stroke="#ffe986" stroke-width="13"/><circle cx="200" cy="187" r="82" fill="#eaa22a" stroke="#ffe986" stroke-width="4"/><path d="M200 238V142M200 186q-77 -1 -72 -62 73 -1 72 62M200 167q-2 -63 67 -68 8 61 -67 68" fill="#54bf54" stroke="#257945" stroke-width="6"/><path d="M142 252q58 -21 116 0" stroke="#fff0ad" stroke-width="8" fill="none"/><text x="200" y="347" text-anchor="middle" font-family="Arial,sans-serif" font-size="34" font-weight="900" fill="white" stroke="#24364a" stroke-width="6" paint-order="stroke">GEM</text><text x="200" y="380" text-anchor="middle" font-family="Arial,sans-serif" font-size="34" font-weight="900" fill="white" stroke="#24364a" stroke-width="6" paint-order="stroke">COLLECTOR</text></svg>