<svg xmlns="http://www.w3.org/2000/svg" viewBox="0 0 400 400"><defs><linearGradient id="g" x2=".7" y2="1"><stop stop-color="#168fba"/><stop offset="1" stop-color="#8df4f7"/></linearGradient></defs><rect width="400" height="400" fill="url(#g)"/><path d="M200 150L0 0V65Z M200 150L400 0V65Z M200 150L400 390V330Z M200 150L0 390V330Z" fill="#fb5a30" opacity=".17"/><circle cx="290" cy="210" r="3" fill="white" opacity=".3"/><circle cx="361" cy="307" r="4" fill="white" opacity=".3"/><circle cx="32" cy="44" r="5" fill="white" opacity=".3"/><circle cx="103" cy="141" r="6" fill="white" opacity=".3"/><circle cx="174" cy="238" r="3" fill="white" opacity=".3"/><circle cx="245" cy="335" r="4" fill="white" opacity=".3"/><circle cx="316" cy="72" r="5" fill="white" opacity=".3"/><circle cx="387" cy="169" r="6" fill="white" opacity=".3"/><circle cx="58" cy="266" r="3" fill="white" opacity=".3"/><circle cx="129" cy="3" r="4" fill="white" opacity=".3"/><circle cx="200" cy="100" r="5" fill="white" opacity=".3"/><circle cx="271" cy="197" r="6" fill="white" opacity=".3"/><circle cx="342" cy="294" r="3" fill="white" opacity=".3"/><circle cx="13" cy="31" r="4" fill="white" opacity=".3"/><circle cx="84" cy="128" r="5" fill="white" opacity=".3"/><circle cx="155" cy="225" r="6" fill="white" opacity=".3"/><circle cx="226" cy="322" r="3" fill="white" opacity=".3"/><circle cx="297" cy="59" r="4" fill="white" opacity=".3"/><circle cx="200" cy="187" r="104" fill="#f4b83b" stroke="#ffe986" stroke-width="13"/><circle cx="200" cy="187" r="82" fill="#eaa22a" stroke="#ffe986" stroke-width="4"/><path d="M200 238V142M200 186q-77 -1 -72 -62 73 -1 72 62M200 167q-2 -63 67 -68 8 61 -67 68" fill="#54bf54" stroke="#257945" stroke-width="6"/><path d="M142 252q58 -21 116 0" stroke="#fff0ad" stroke-width="8" fill="none"/><text x="200" y="347" text-anchor="middle" font-family="Arial,sans-serif" font-size="34" font-weight="900" fill="white" stroke="#24364a" stroke-width="6" paint-order="stroke">MOON</text><text x="200" y="380" text-anchor="middle" font-family="Arial,sans-serif" font-size="34" font-weight="900" fill="white" stroke="#24364a" stroke-width="6" paint-order="stroke">MINER</text></svg>