<svg xmlns="http://www.w3.org/2000/svg" viewBox="0 0 400 400"><defs><linearGradient id="g" x2=".7" y2="1"><stop stop-color="#1b94ce"/><stop offset="1" stop-color="#a3e9ff"/></linearGradient></defs><rect width="400" height="400" fill="url(#g)"/><path d="M200 150L0 0V65Z M200 150L400 0V65Z M200 150L400 390V330Z M200 150L0 390V330Z" fill="#ffbc38" opacity=".17"/><circle cx="281" cy="17" r="3" fill="white" opacity=".3"/><circle cx="352" cy="114" r="4" fill="white" opacity=".3"/><circle cx="23" cy="211" r="5" fill="white" opacity=".3"/><circle cx="94" cy="308" r="6" fill="white" opacity=".3"/><circle cx="165" cy="45" r="3" fill="white" opacity=".3"/><circle cx="236" cy="142" r="4" fill="white" opacity=".3"/><circle cx="307" cy="239" r="5" fill="white" opacity=".3"/><circle cx="378" cy="336" r="6" fill="white" opacity=".3"/><circle cx="49" cy="73" r="3" fill="white" opacity=".3"/><circle cx="120" cy="170" r="4" fill="white" opacity=".3"/><circle cx="191" cy="267" r="5" fill="white" opacity=".3"/><circle cx="262" cy="4" r="6" fill="white" opacity=".3"/><circle cx="333" cy="101" r="3" fill="white" opacity=".3"/><circle cx="4" cy="198" r="4" fill="white" opacity=".3"/><circle cx="75" cy="295" r="5" fill="white" opacity=".3"/><circle cx="146" cy="32" r="6" fill="white" opacity=".3"/><circle cx="217" cy="129" r="3" fill="white" opacity=".3"/><circle cx="288" cy="226" r="4" fill="white" opacity=".3"/><rect x="35" y="64" width="60" height="33" rx="7" fill="#ff687c" stroke="white" stroke-opacity=".3" stroke-width="3"/><rect x="103" y="64" width="60" height="33" rx="7" fill="#ff687c" stroke="white" stroke-opacity=".3" stroke-width="3"/><rect x="171" y="64" width="60" height="33" rx="7" fill="#ff687c" stroke="white" stroke-opacity=".3" stroke-width="3"/><rect x="239" y="64" width="60" height="33" rx="7" fill="#ff687c" stroke="white" stroke-opacity=".3" stroke-width="3"/><rect x="307" y="64" width="60" height="33" rx="7" fill="#ff687c" stroke="white" stroke-opacity=".3" stroke-width="3"/><rect x="35" y="106" width="60" height="33" rx="7" fill="#ffe269" stroke="white" stroke-opacity=".3" stroke-width="3"/><rect x="103" y="106" width="60" height="33" rx="7" fill="#ffe269" stroke="white" stroke-opacity=".3" stroke-width="3"/><rect x="171" y="106" width="60" height="33" rx="7" fill="#ffe269" stroke="white" stroke-opacity=".3" stroke-width="3"/><rect x="239" y="106" width="60" height="33" rx="7" fill="#ffe269" stroke="white" stroke-opacity=".3" stroke-width="3"/><rect x="307" y="106" width="60" height="33" rx="7" fill="#ffe269" stroke="white" stroke-opacity=".3" stroke-width="3"/><rect x="35" y="148" width="60" height="33" rx="7" fill="#58e4ca" stroke="white" stroke-opacity=".3" stroke-width="3"/><rect x="103" y="148" width="60" height="33" rx="7" fill="#58e4ca" stroke="white" stroke-opacity=".3" stroke-width="3"/><rect x="171" y="148" width="60" height="33" rx="7" fill="#58e4ca" stroke="white" stroke-opacity=".3" stroke-width="3"/><rect x="239" y="148" width="60" height="33" rx="7" fill="#58e4ca" stroke="white" stroke-opacity=".3" stroke-width="3"/><rect x="307" y="148" width="60" height="33" rx="7" fill="#58e4ca" stroke="white" stroke-opacity=".3" stroke-width="3"/><rect x="35" y="190" width="60" height="33" rx="7" fill="#b28cff" stroke="white" stroke-opacity=".3" stroke-width="3"/><rect x="103" y="190" width="60" height="33" rx="7" fill="#b28cff" stroke="white" stroke-opacity=".3" stroke-width="3"/><rect x="171" y="190" width="60" height="33" rx="7" fill="#b28cff" stroke="white" stroke-opacity=".3" stroke-width="3"/><rect x="239" y="190" width="60" height="33" rx="7" fill="#b28cff" stroke="white" stroke-opacity=".3" stroke-width="3"/><rect x="307" y="190" width="60" height="33" rx="7" fill="#b28cff" stroke="white" stroke-opacity=".3" stroke-width="3"/><path d="M90 295l160 -55 -65 -72" stroke="white" stroke-width="5" stroke-dasharray="12 8" opacity=".6"/><circle cx="249" cy="240" r="20" fill="white"/><rect x="95" y="307" width="176" height="25" rx="12" fill="#4be5f0" stroke="white" stroke-width="5"/><text x="200" y="347" text-anchor="middle" font-family="Arial,sans-serif" font-size="34" font-weight="900" fill="white" stroke="#24364a" stroke-width="6" paint-order="stroke">PIXEL</text><text x="200" y="380" text-anchor="middle" font-family="Arial,sans-serif" font-size="34" font-weight="900" fill="white" stroke="#24364a" stroke-width="6" paint-order="stroke">RIVALS</text></svg>