<svg xmlns="http://www.w3.org/2000/svg" viewBox="0 0 400 400"><defs><linearGradient id="g" x2=".7" y2="1"><stop stop-color="#e79829"/><stop offset="1" stop-color="#ffe697"/></linearGradient></defs><rect width="400" height="400" fill="url(#g)"/><path d="M200 150L0 0V65Z M200 150L400 0V65Z M200 150L400 390V330Z M200 150L0 390V330Z" fill="#62bc50" opacity=".17"/><circle cx="138" cy="186" r="3" fill="white" opacity=".3"/><circle cx="209" cy="283" r="4" fill="white" opacity=".3"/><circle cx="280" cy="20" r="5" fill="white" opacity=".3"/><circle cx="351" cy="117" r="6" fill="white" opacity=".3"/><circle cx="22" cy="214" r="3" fill="white" opacity=".3"/><circle cx="93" cy="311" r="4" fill="white" opacity=".3"/><circle cx="164" cy="48" r="5" fill="white" opacity=".3"/><circle cx="235" cy="145" r="6" fill="white" opacity=".3"/><circle cx="306" cy="242" r="3" fill="white" opacity=".3"/><circle cx="377" cy="339" r="4" fill="white" opacity=".3"/><circle cx="48" cy="76" r="5" fill="white" opacity=".3"/><circle cx="119" cy="173" r="6" fill="white" opacity=".3"/><circle cx="190" cy="270" r="3" fill="white" opacity=".3"/><circle cx="261" cy="7" r="4" fill="white" opacity=".3"/><circle cx="332" cy="104" r="5" fill="white" opacity=".3"/><circle cx="3" cy="201" r="6" fill="white" opacity=".3"/><circle cx="74" cy="298" r="3" fill="white" opacity=".3"/><circle cx="145" cy="35" r="4" fill="white" opacity=".3"/><circle cx="200" cy="187" r="104" fill="#f4b83b" stroke="#ffe986" stroke-width="13"/><circle cx="200" cy="187" r="82" fill="#eaa22a" stroke="#ffe986" stroke-width="4"/><path d="M200 238V142M200 186q-77 -1 -72 -62 73 -1 72 62M200 167q-2 -63 67 -68 8 61 -67 68" fill="#54bf54" stroke="#257945" stroke-width="6"/><path d="M142 252q58 -21 116 0" stroke="#fff0ad" stroke-width="8" fill="none"/><text x="200" y="347" text-anchor="middle" font-family="Arial,sans-serif" font-size="34" font-weight="900" fill="white" stroke="#24364a" stroke-width="6" paint-order="stroke">SPROUT</text><text x="200" y="380" text-anchor="middle" font-family="Arial,sans-serif" font-size="34" font-weight="900" fill="white" stroke="#24364a" stroke-width="6" paint-order="stroke">CLICKER</text></svg>