<svg xmlns="http://www.w3.org/2000/svg" viewBox="0 0 400 400"><defs><linearGradient id="g" x2=".7" y2="1"><stop stop-color="#52368d"/><stop offset="1" stop-color="#f088dd"/></linearGradient></defs><rect width="400" height="400" fill="url(#g)"/><path d="M200 150L0 0V65Z M200 150L400 0V65Z M200 150L400 390V330Z M200 150L0 390V330Z" fill="#65e5dd" opacity=".17"/><circle cx="97" cy="129" r="3" fill="white" opacity=".3"/><circle cx="168" cy="226" r="4" fill="white" opacity=".3"/><circle cx="239" cy="323" r="5" fill="white" opacity=".3"/><circle cx="310" cy="60" r="6" fill="white" opacity=".3"/><circle cx="381" cy="157" r="3" fill="white" opacity=".3"/><circle cx="52" cy="254" r="4" fill="white" opacity=".3"/><circle cx="123" cy="351" r="5" fill="white" opacity=".3"/><circle cx="194" cy="88" r="6" fill="white" opacity=".3"/><circle cx="265" cy="185" r="3" fill="white" opacity=".3"/><circle cx="336" cy="282" r="4" fill="white" opacity=".3"/><circle cx="7" cy="19" r="5" fill="white" opacity=".3"/><circle cx="78" cy="116" r="6" fill="white" opacity=".3"/><circle cx="149" cy="213" r="3" fill="white" opacity=".3"/><circle cx="220" cy="310" r="4" fill="white" opacity=".3"/><circle cx="291" cy="47" r="5" fill="white" opacity=".3"/><circle cx="362" cy="144" r="6" fill="white" opacity=".3"/><circle cx="33" cy="241" r="3" fill="white" opacity=".3"/><circle cx="104" cy="338" r="4" fill="white" opacity=".3"/><rect x="35" y="64" width="60" height="33" rx="7" fill="#ff687c" stroke="white" stroke-opacity=".3" stroke-width="3"/><rect x="103" y="64" width="60" height="33" rx="7" fill="#ff687c" stroke="white" stroke-opacity=".3" stroke-width="3"/><rect x="171" y="64" width="60" height="33" rx="7" fill="#ff687c" stroke="white" stroke-opacity=".3" stroke-width="3"/><rect x="239" y="64" width="60" height="33" rx="7" fill="#ff687c" stroke="white" stroke-opacity=".3" stroke-width="3"/><rect x="307" y="64" width="60" height="33" rx="7" fill="#ff687c" stroke="white" stroke-opacity=".3" stroke-width="3"/><rect x="35" y="106" width="60" height="33" rx="7" fill="#ffe269" stroke="white" stroke-opacity=".3" stroke-width="3"/><rect x="103" y="106" width="60" height="33" rx="7" fill="#ffe269" stroke="white" stroke-opacity=".3" stroke-width="3"/><rect x="171" y="106" width="60" height="33" rx="7" fill="#ffe269" stroke="white" stroke-opacity=".3" stroke-width="3"/><rect x="239" y="106" width="60" height="33" rx="7" fill="#ffe269" stroke="white" stroke-opacity=".3" stroke-width="3"/><rect x="307" y="106" width="60" height="33" rx="7" fill="#ffe269" stroke="white" stroke-opacity=".3" stroke-width="3"/><rect x="35" y="148" width="60" height="33" rx="7" fill="#58e4ca" stroke="white" stroke-opacity=".3" stroke-width="3"/><rect x="103" y="148" width="60" height="33" rx="7" fill="#58e4ca" stroke="white" stroke-opacity=".3" stroke-width="3"/><rect x="171" y="148" width="60" height="33" rx="7" fill="#58e4ca" stroke="white" stroke-opacity=".3" stroke-width="3"/><rect x="239" y="148" width="60" height="33" rx="7" fill="#58e4ca" stroke="white" stroke-opacity=".3" stroke-width="3"/><rect x="307" y="148" width="60" height="33" rx="7" fill="#58e4ca" stroke="white" stroke-opacity=".3" stroke-width="3"/><rect x="35" y="190" width="60" height="33" rx="7" fill="#b28cff" stroke="white" stroke-opacity=".3" stroke-width="3"/><rect x="103" y="190" width="60" height="33" rx="7" fill="#b28cff" stroke="white" stroke-opacity=".3" stroke-width="3"/><rect x="171" y="190" width="60" height="33" rx="7" fill="#b28cff" stroke="white" stroke-opacity=".3" stroke-width="3"/><rect x="239" y="190" width="60" height="33" rx="7" fill="#b28cff" stroke="white" stroke-opacity=".3" stroke-width="3"/><rect x="307" y="190" width="60" height="33" rx="7" fill="#b28cff" stroke="white" stroke-opacity=".3" stroke-width="3"/><path d="M90 295l160 -55 -65 -72" stroke="white" stroke-width="5" stroke-dasharray="12 8" opacity=".6"/><circle cx="249" cy="240" r="20" fill="white"/><rect x="95" y="307" width="176" height="25" rx="12" fill="#4be5f0" stroke="white" stroke-width="5"/><text x="200" y="347" text-anchor="middle" font-family="Arial,sans-serif" font-size="34" font-weight="900" fill="white" stroke="#24364a" stroke-width="6" paint-order="stroke">SUNSET</text><text x="200" y="380" text-anchor="middle" font-family="Arial,sans-serif" font-size="34" font-weight="900" fill="white" stroke="#24364a" stroke-width="6" paint-order="stroke">SHOWDOWN</text></svg>